<?xml version="1.0" encoding="UTF-8" standalone="no"?>
<!-- Created with Inkscape (http://www.inkscape.org/) -->

<svg
   xmlns:dc="http://purl.org/dc/elements/1.1/"
   xmlns:cc="http://creativecommons.org/ns#"
   xmlns:rdf="http://www.w3.org/1999/02/22-rdf-syntax-ns#"
   xmlns:svg="http://www.w3.org/2000/svg"
   xmlns="http://www.w3.org/2000/svg"
   xmlns:sodipodi="http://sodipodi.sourceforge.net/DTD/sodipodi-0.dtd"
   xmlns:inkscape="http://www.inkscape.org/namespaces/inkscape"
   width="48px"
   height="48px"
   id="svg2985"
   version="1.1"
   inkscape:version="0.48.5 r10040"
   sodipodi:docname="flashlight.svg"
   inkscape:export-filename="/home/risto/Dropbox/defend-ukraine/img/flashlight.png"
   inkscape:export-xdpi="37.5"
   inkscape:export-ydpi="37.5">
  <defs
     id="defs2987">
    <inkscape:path-effect
       effect="spiro"
       id="path-effect3814"
       is_visible="true" />
    <inkscape:path-effect
       effect="spiro"
       id="path-effect3810"
       is_visible="true" />
    <inkscape:path-effect
       effect="spiro"
       id="path-effect3806"
       is_visible="true" />
    <inkscape:path-effect
       effect="spiro"
       id="path-effect3802"
       is_visible="true" />
  </defs>
  <sodipodi:namedview
     id="base"
     pagecolor="#ffffff"
     bordercolor="#666666"
     borderopacity="1.0"
     inkscape:pageopacity="0"
     inkscape:pageshadow="2"
     inkscape:zoom="7"
     inkscape:cx="-1"
     inkscape:cy="24"
     inkscape:current-layer="layer1"
     showgrid="true"
     inkscape:grid-bbox="true"
     inkscape:document-units="px"
     showborder="true"
     inkscape:showpageshadow="false"
     inkscape:window-width="1920"
     inkscape:window-height="1041"
     inkscape:window-x="0"
     inkscape:window-y="0"
     inkscape:window-maximized="1" />
  <metadata
     id="metadata2990">
    <rdf:RDF>
      <cc:Work
         rdf:about="">
        <dc:format>image/svg+xml</dc:format>
        <dc:type
           rdf:resource="http://purl.org/dc/dcmitype/StillImage" />
        <dc:title></dc:title>
      </cc:Work>
    </rdf:RDF>
  </metadata>
  <g
     id="layer1"
     inkscape:label="Layer 1"
     inkscape:groupmode="layer">
    <g
       id="g3816"
       style="fill:#010101;fill-opacity:1;stroke:#ffffff;stroke-opacity:1;stroke-width:1.5;stroke-miterlimit:4;stroke-dasharray:none">
      <rect
         transform="matrix(0.8660254,0.5,-0.5,0.8660254,0,0)"
         y="7.2363935"
         x="23.12179"
         height="27.285715"
         width="10.857142"
         id="rect2993"
         style="fill:#010101;fill-opacity:1;stroke:#ffffff;stroke-width:1.5;stroke-opacity:1;stroke-miterlimit:4;stroke-dasharray:none" />
      <path
         sodipodi:nodetypes="cccccc"
         inkscape:connector-curvature="0"
         id="path3791"
         d="M 24.714287,10.571429 36.167389,17.138096 25.863182,23.02282 16.29068,18.152599 14.535898,5.829342 z"
         inkscape:transform-center-y="0.73917278"
         inkscape:transform-center-x="-0.4039665"
         style="fill:#010101;fill-opacity:1;stroke:#ffffff;stroke-opacity:1;stroke-width:1.5;stroke-miterlimit:4;stroke-dasharray:none" />
      <path
         transform="translate(-4.1428572,0.71428573)"
         d="m 23.714287,26.071428 a 2.4285715,1.7857143 0 1 1 -4.857143,0 2.4285715,1.7857143 0 1 1 4.857143,0 z"
         sodipodi:ry="1.7857143"
         sodipodi:rx="2.4285715"
         sodipodi:cy="26.071428"
         sodipodi:cx="21.285715"
         id="path3794"
         style="fill:#010101;fill-opacity:1;stroke:#ffffff;stroke-opacity:1;stroke-width:1.5;stroke-miterlimit:4;stroke-dasharray:none"
         sodipodi:type="arc" />
      <path
         inkscape:connector-curvature="0"
         inkscape:original-d="m 20.714286,6.7142857 c 0,-0.2380952 -0.03914,-0.47943 0,-0.7142857 0.01107,-0.066427 0.11274,-0.082623 0.142857,-0.1428571 0.0213,-0.042592 -0.0213,-0.1002654 0,-0.1428572 C 20.88726,5.6540519 20.978704,5.6353162 21,5.5714286 c 0.03012,-0.090351 -0.03012,-0.1953635 0,-0.2857143 0.0213,-0.063888 0.11274,-0.082623 0.142857,-0.1428572 0.0213,-0.042592 0,-0.095238 0,-0.1428571 0,-0.095238 -0.03012,-0.1953635 0,-0.2857143 0.0213,-0.063888 0.11274,-0.082623 0.142857,-0.1428571 0.04259,-0.085184 -0.04259,-0.2005308 0,-0.2857143 0.03012,-0.060234 0.11274,-0.082623 0.142857,-0.1428572 0.0213,-0.042592 0,-0.095238 0,-0.1428571 0,-0.047619 0,-0.095238 0,-0.1428571 0,-0.2380953 0,-0.4761905 0,-0.7142858 0,-0.074703 0.01878,-0.5338655 0,-0.5714285 -0.03012,-0.060234 -0.11274,-0.082623 -0.142857,-0.1428572 -0.2102,-0.4204013 0.330941,0.1880832 -0.142857,-0.2857143"
         inkscape:path-effect="#path-effect3802"
         id="path3800"
         d="M 20.714286,6.7142857 C 20.599804,6.634417 20.52798,6.4967317 20.52798,6.3571428 20.52798,6.217554 20.599804,6.0798687 20.714286,6 c 0.02844,-0.019841 0.05927,-0.036304 0.08616,-0.058197 0.01345,-0.010946 0.02588,-0.023264 0.0359,-0.037418 0.01001,-0.014154 0.01756,-0.030208 0.02079,-0.047243 0.0045,-0.023567 5.81e-4,-0.047799 -0.0025,-0.071589 -0.0031,-0.02379 -0.0052,-0.048551 0.0025,-0.071268 0.0055,-0.016186 0.01574,-0.03044 0.02785,-0.042508 0.0121,-0.012068 0.02605,-0.022106 0.04014,-0.031774 0.01409,-0.00967 0.02843,-0.019048 0.04155,-0.030001 0.01312,-0.010953 0.02508,-0.023605 0.03332,-0.038575 0.01175,-0.021337 0.01538,-0.046398 0.01428,-0.070733 -0.0011,-0.024335 -0.0067,-0.048219 -0.01241,-0.071898 -0.0057,-0.023679 -0.01162,-0.04746 -0.01336,-0.071757 -0.0017,-0.024298 8.76e-4,-0.0494 0.01149,-0.071325 0.01482,-0.030625 0.04337,-0.051921 0.07097,-0.071815 0.0276,-0.019894 0.05634,-0.040775 0.07188,-0.071042 0.01114,-0.021689 0.01455,-0.04672 0.01328,-0.071069 -0.0013,-0.024349 -0.007,-0.048234 -0.01328,-0.071788 -0.01276,-0.047732 -0.02806,-0.095195 -0.03247,-0.1444065 -0.0044,-0.049212 0.0032,-0.1014874 0.03247,-0.1413078 0.02012,-0.027394 0.04884,-0.046937 0.07585,-0.067562 0.02702,-0.020625 0.05373,-0.044004 0.067,-0.075295 0.0095,-0.022396 0.01139,-0.047417 0.0093,-0.071658 -0.0021,-0.024241 -0.0079,-0.047973 -0.01341,-0.071673 -0.0055,-0.0237 -0.01067,-0.04765 -0.01134,-0.071969 -6.67e-4,-0.024319 0.0034,-0.049256 0.01542,-0.070414 0.0084,-0.014867 0.0205,-0.027407 0.03368,-0.038291 0.01318,-0.010884 0.02754,-0.020234 0.04163,-0.029914 0.01409,-0.00968 0.02801,-0.019773 0.04004,-0.031916 0.01203,-0.012143 0.02218,-0.026492 0.0275,-0.042737 0.0074,-0.022735 0.0053,-0.047358 0.0033,-0.071195 -0.002,-0.023837 -0.0033,-0.047739 -0.0033,-0.071663 0,-0.047619 0,-0.095238 0,-0.1428571 0,-0.2380953 0,-0.4761905 0,-0.7142858 0,-0.096514 0.0084,-0.1927773 0.02204,-0.2883289 0.0068,-0.047776 0.01333,-0.095833 0.01235,-0.1440804 -9.84e-4,-0.048247 -0.01005,-0.097346 -0.03439,-0.1390192 -0.03411,-0.058424 -0.09401,-0.096049 -0.142857,-0.1428572 -0.07841,-0.075135 -0.129795,-0.1779054 -0.142857,-0.2857143"
         style="fill:#010101;stroke:#ffffff;stroke-width:1.5;stroke-linecap:butt;stroke-linejoin:miter;stroke-opacity:1;fill-opacity:1;stroke-miterlimit:4;stroke-dasharray:none" />
      <path
         inkscape:connector-curvature="0"
         inkscape:original-d="m 24.571429,8 c 0.190476,-0.095238 0.388817,-0.1761479 0.571428,-0.2857143 0.05775,-0.034648 0.09524,-0.095238 0.142857,-0.1428571 0.04762,-0.047619 0.105502,-0.086824 0.142857,-0.1428572 0.05906,-0.088596 0.08379,-0.197118 0.142858,-0.2857143 C 25.608784,7.086824 25.666667,7.047619 25.714286,7 25.761905,6.9047619 25.798079,6.802882 25.857143,6.7142857 25.939324,6.5910143 26.174131,6.397298 26.285714,6.2857143 26.52381,6.047619 26.761905,5.8095238 27,5.5714286 c 0.04762,-0.047619 0.09524,-0.095238 0.142857,-0.1428572 0.04762,-0.047619 0.11274,-0.082623 0.142857,-0.1428571 0.0213,-0.042592 -0.0213,-0.1002654 0,-0.1428572 C 27.315831,5.0826233 27.380952,5.047619 27.428571,5 c 0.04762,-0.047619 0.08262,-0.1127402 0.142858,-0.1428571 0.04259,-0.021296 0.109185,0.033672 0.142857,0 0.03367,-0.033672 0,-0.095238 0,-0.1428572"
         inkscape:path-effect="#path-effect3806"
         id="path3804"
         d="m 24.571429,8 c 0.212813,-0.036998 0.414142,-0.1376628 0.571428,-0.2857143 0.04904,-0.046162 0.09381,-0.096704 0.142857,-0.1428571 0.04913,-0.04623 0.102937,-0.088474 0.142857,-0.1428572 0.06313,-0.086006 0.08639,-0.1951917 0.142858,-0.2857143 C 25.607381,7.0852219 25.656651,7.0359516 25.714286,7 25.743401,6.8969211 25.792149,6.7994249 25.857143,6.7142857 25.979837,6.5535621 26.142735,6.4286932 26.285714,6.2857143 26.52381,6.0476192 26.761905,5.809524 27,5.5714286 c 0.04762,-0.047619 0.09524,-0.095238 0.142857,-0.1428572 0.02406,-0.024056 0.04991,-0.046212 0.07677,-0.067095 0.01343,-0.010441 0.02685,-0.020995 0.03867,-0.033232 0.01181,-0.012237 0.02205,-0.026391 0.02742,-0.04253 0.0076,-0.02277 0.0049,-0.047541 0.0017,-0.071314 -0.0033,-0.023774 -0.0071,-0.048167 -0.0017,-0.071543 0.0039,-0.01674 0.01242,-0.032175 0.02322,-0.045537 0.01081,-0.013362 0.02386,-0.024753 0.03757,-0.035122 0.02741,-0.020739 0.05785,-0.037816 0.08207,-0.062198 0.02425,-0.024411 0.04114,-0.055005 0.06186,-0.08248 0.01036,-0.013738 0.02178,-0.026802 0.03521,-0.037557 0.01343,-0.010755 0.02897,-0.019165 0.04579,-0.022819 0.02348,-0.00511 0.04784,-7.647e-4 0.07162,0.00269 0.02378,0.00345 0.04878,0.00589 0.07123,-0.00269 0.01436,-0.00548 0.02698,-0.015411 0.03569,-0.028069 0.0087,-0.012658 0.01348,-0.027992 0.01348,-0.04336 0,-0.015367 -0.0048,-0.030702 -0.01348,-0.04336 -0.0087,-0.012658 -0.02134,-0.022584 -0.03569,-0.028069"
         style="fill:#010101;stroke:#ffffff;stroke-width:1.5;stroke-linecap:butt;stroke-linejoin:miter;stroke-opacity:1;fill-opacity:1;stroke-miterlimit:4;stroke-dasharray:none" />
      <path
         inkscape:connector-curvature="0"
         inkscape:original-d="M 31.428571,10 C 31.619048,9.9047619 31.817389,9.8238521 32,9.7142857 32.05775,9.6796377 32.08682,9.608784 32.142857,9.5714286 32.231457,9.5123646 32.333333,9.4761906 32.428571,9.4285714 32.619048,9.3333333 32.802273,9.2219481 33,9.1428571 c 0.290398,-0.116159 0.463017,-0.1182015 0.714286,-0.2857142 0.05603,-0.037356 0.08682,-0.1055017 0.142857,-0.1428572 0.0886,-0.059064 0.197118,-0.083793 0.285714,-0.1428571 0.05603,-0.037356 0.08682,-0.1055017 0.142857,-0.1428572 0.0886,-0.059064 0.197118,-0.083793 0.285715,-0.1428571 0.05603,-0.037356 0.08262,-0.1127402 0.142857,-0.1428572 0.464636,-0.232318 0.339811,-0.036065 0.714285,-0.2857142 0.263737,-0.1758242 0.02198,-0.1098902 0.285715,-0.2857143 0.177192,-0.1181283 0.394236,-0.167586 0.571428,-0.2857143 0.05603,-0.037356 0.09524,-0.095238 0.142857,-0.1428572"
         inkscape:path-effect="#path-effect3810"
         id="path3808"
         d="M 31.428571,10 C 31.643465,9.9709176 31.847798,9.8687514 32,9.7142857 c 0.04731,-0.048015 0.08995,-0.1010889 0.142857,-0.1428571 0.08385,-0.066197 0.187912,-0.099873 0.285714,-0.1428572 C 32.623687,9.3428175 32.799994,9.2164896 33,9.1428571 c 0.121578,-0.044759 0.24959,-0.069152 0.373678,-0.1063884 0.124089,-0.037237 0.247381,-0.089363 0.340608,-0.1793258 0.04854,-0.046838 0.08824,-0.103278 0.142857,-0.1428572 0.04326,-0.031347 0.09386,-0.050626 0.143627,-0.070051 0.04977,-0.019425 0.100101,-0.039775 0.142087,-0.072806 0.053,-0.0417 0.08973,-0.1013102 0.142857,-0.1428572 0.04209,-0.032914 0.09254,-0.05301 0.142345,-0.072344 0.04981,-0.019334 0.100434,-0.038716 0.14337,-0.070513 0.05419,-0.040134 0.09286,-0.097599 0.142857,-0.1428572 0.09595,-0.086862 0.226297,-0.1230628 0.352248,-0.152859 0.125952,-0.029796 0.2567,-0.057651 0.362037,-0.1328552 0.109833,-0.078415 0.180916,-0.2006883 0.285715,-0.2857143 0.08299,-0.067331 0.183636,-0.1085577 0.28325,-0.1472589 0.09961,-0.038701 0.201105,-0.076496 0.288178,-0.1384554 0.05513,-0.039227 0.103631,-0.087732 0.142857,-0.1428572"
         style="fill:#010101;stroke:#ffffff;stroke-width:1.5;stroke-linecap:butt;stroke-linejoin:miter;stroke-opacity:1;fill-opacity:1;stroke-miterlimit:4;stroke-dasharray:none" />
      <path
         inkscape:connector-curvature="0"
         inkscape:original-d="m 33.571429,12.714286 c 0.663823,0.165955 0.37509,0.142857 0.857142,0.142857 0.09524,0 0.192326,0.01868 0.285715,0 0.295321,-0.05906 0.567561,-0.202977 0.857143,-0.285714 0.188784,-0.05394 0.392012,-0.06312 0.571428,-0.142858 0.253733,-0.11277 0.456481,-0.325449 0.714286,-0.428571 0.225444,-0.09018 0.477257,-0.09018 0.714286,-0.142857 0.191663,-0.04259 0.379765,-0.100266 0.571428,-0.142857 0.237029,-0.05267 0.480031,-0.07897 0.714286,-0.142857 0.435836,-0.118865 0.857143,-0.285715 1.285714,-0.428572 0.142857,-0.04762 0.280911,-0.113325 0.428572,-0.142857 0.09339,-0.01868 0.193319,0.0231 0.285714,0 0.741796,-0.185449 -0.152506,-0.142857 0.571428,-0.142857"
         inkscape:path-effect="#path-effect3814"
         id="path3812"
         d="m 33.571429,12.714286 c 0.280349,0.07454 0.567773,0.122443 0.857142,0.142857 0.09513,0.0067 0.190918,0.01045 0.285715,0 0.300199,-0.03308 0.566355,-0.204127 0.857143,-0.285714 0.189283,-0.05311 0.38949,-0.06838 0.571428,-0.142858 C 36.400385,12.32315 36.600551,12.107679 36.857143,12 c 0.224521,-0.09422 0.474773,-0.09903 0.714286,-0.142857 0.193182,-0.03535 0.380592,-0.09648 0.571428,-0.142857 0.235969,-0.05734 0.476827,-0.09204 0.714286,-0.142857 0.442536,-0.09471 0.871945,-0.245259 1.285714,-0.428572 0.138293,-0.06127 0.278136,-0.127121 0.428572,-0.142857 0.09479,-0.0099 0.19041,5.22e-4 0.285714,0 0.198225,-0.0011 0.396013,-0.05053 0.571428,-0.142857"
         style="fill:#010101;stroke:#ffffff;stroke-width:1.5;stroke-linecap:butt;stroke-linejoin:miter;stroke-opacity:1;fill-opacity:1;stroke-miterlimit:4;stroke-dasharray:none" />
    </g>
  </g>
</svg>
