<?xml version="1.0" encoding="UTF-8" standalone="no"?>
<!-- Created with Inkscape (http://www.inkscape.org/) -->

<svg
   xmlns:dc="http://purl.org/dc/elements/1.1/"
   xmlns:cc="http://creativecommons.org/ns#"
   xmlns:rdf="http://www.w3.org/1999/02/22-rdf-syntax-ns#"
   xmlns:svg="http://www.w3.org/2000/svg"
   xmlns="http://www.w3.org/2000/svg"
   xmlns:sodipodi="http://sodipodi.sourceforge.net/DTD/sodipodi-0.dtd"
   xmlns:inkscape="http://www.inkscape.org/namespaces/inkscape"
   width="64px"
   height="64px"
   id="svg4608"
   version="1.1"
   inkscape:version="0.48.4 r9939"
   sodipodi:docname="soldier.svg"
   inkscape:export-filename="C:\Users\rita\Dropbox\defend-ukraine\img\soldier.png"
   inkscape:export-xdpi="123"
   inkscape:export-ydpi="123">
  <defs
     id="defs4610" />
  <sodipodi:namedview
     id="base"
     pagecolor="#ffffff"
     bordercolor="#666666"
     borderopacity="1.0"
     inkscape:pageopacity="0.0"
     inkscape:pageshadow="2"
     inkscape:zoom="7.7781746"
     inkscape:cx="8.3290179"
     inkscape:cy="32.378821"
     inkscape:current-layer="layer1"
     showgrid="true"
     inkscape:document-units="px"
     inkscape:grid-bbox="true"
     inkscape:window-width="1680"
     inkscape:window-height="998"
     inkscape:window-x="-8"
     inkscape:window-y="-8"
     inkscape:window-maximized="1" />
  <metadata
     id="metadata4613">
    <rdf:RDF>
      <cc:Work
         rdf:about="">
        <dc:format>image/svg+xml</dc:format>
        <dc:type
           rdf:resource="http://purl.org/dc/dcmitype/StillImage" />
        <dc:title></dc:title>
      </cc:Work>
    </rdf:RDF>
  </metadata>
  <g
     id="layer1"
     inkscape:label="Layer 1"
     inkscape:groupmode="layer">
    <path
       sodipodi:type="arc"
       style="fill:#ffd5d5;fill-opacity:1;fill-rule:evenodd;stroke:#000000;stroke-width:0.69999999;stroke-linecap:round;stroke-linejoin:miter;stroke-miterlimit:4;stroke-opacity:1;stroke-dasharray:none;stroke-dashoffset:0"
       id="path4616"
       sodipodi:cx="25"
       sodipodi:cy="31.454546"
       sodipodi:rx="5"
       sodipodi:ry="4.3636365"
       d="m 30,31.454546 a 5,4.3636365 0 1 1 -10,0 5,4.3636365 0 1 1 10,0 z"
       transform="matrix(3.5133488,0,0,1.8624442,-50.757243,-38.864996)" />
    <path
       sodipodi:type="arc"
       style="fill:#ffd5d5;fill-opacity:1;fill-rule:evenodd;stroke:#000000;stroke-width:0.69999999;stroke-linecap:round;stroke-linejoin:miter;stroke-miterlimit:4;stroke-opacity:1;stroke-dasharray:none;stroke-dashoffset:0"
       id="path5126"
       sodipodi:cx="22.788122"
       sodipodi:cy="29.737463"
       sodipodi:rx="0.61068314"
       sodipodi:ry="0.51425946"
       d="m 23.398805,29.737463 a 0.61068314,0.51425946 0 1 1 -1.221366,0 0.61068314,0.51425946 0 1 1 1.221366,0 z"
       transform="matrix(3.5133488,0,0,1.8624442,-49.853856,-37.188881)" />
    <path
       sodipodi:type="arc"
       style="fill:#ffd5d5;fill-opacity:1;fill-rule:evenodd;stroke:#000000;stroke-width:0.69999999;stroke-linecap:round;stroke-linejoin:miter;stroke-miterlimit:4;stroke-opacity:1;stroke-dasharray:none;stroke-dashoffset:0"
       id="path5128"
       sodipodi:cx="26.162951"
       sodipodi:cy="29.67318"
       sodipodi:rx="0.64282435"
       sodipodi:ry="0.57854193"
       d="m 26.805775,29.67318 a 0.64282435,0.57854193 0 1 1 -1.285649,0 0.64282435,0.57854193 0 1 1 1.285649,0 z"
       transform="matrix(3.5133488,0,0,1.8624442,-47.821237,-37.188881)" />
    <path
       style="fill:none;stroke:#7f5126;stroke-width:2.55801034px;stroke-linecap:butt;stroke-linejoin:miter;stroke-opacity:1"
       d="m 25.578914,24.181604 c 2.09507,0.565833 6.675054,1.157293 8.13048,0 0.83923,-0.667319 1.540603,-1.654738 2.258464,-2.035281 0.726909,2.092319 1.092107,2.707149 4.742779,3.352228 0.912753,0.161289 2.00451,0.392824 3.161852,0.239446 1.2788,-0.169482 2.498939,-0.883134 3.387698,-1.197224"
       id="path5132"
       inkscape:connector-curvature="0" />
    <path
       style="fill:#00a200;fill-opacity:1;stroke:#007b00;stroke-width:3.34994841px;stroke-linecap:butt;stroke-linejoin:miter;stroke-opacity:1"
       d="m 18.538869,14.435233 c 36.082099,0 36.082099,0 36.082099,0 0,0 -0.5867,-9.9589789 -20.534529,-9.9589789 -19.947828,0 -15.54757,9.9589789 -15.54757,9.9589789 z"
       id="path5136"
       inkscape:connector-curvature="0" />
    <path
       style="fill:#00a200;fill-opacity:1;stroke:#007300;stroke-width:2.55801034px;stroke-linecap:butt;stroke-linejoin:miter;stroke-opacity:1"
       d="m 38.678017,28.731058 c 0,0 -21.907121,0 -21.907121,2.514171 0,2.514171 0.45169,11.732799 3.83939,11.014465 3.387698,-0.718335 4.516934,-1.436669 4.516934,-1.436669 0,0 -2.936007,-9.33835 -1.129236,-8.859462 1.806775,0.47889 4.742782,10.415854 4.742782,10.415854 l -2.032619,2.035282 24.843128,-0.119718 -1.129236,-2.753616 -3.387697,-9.936963 c 0,0 13.550796,-2.753616 5.646165,2.03528 -7.904634,4.7889 -13.099106,6.704459 -13.099106,6.704459 l 2.936006,1.795836 8.80802,-2.993062 9.033862,-7.183346 c 0,0 8.582174,-5.148064 -21.681272,-3.232505 z"
       id="path5138"
       inkscape:connector-curvature="0" />
    <path
       style="fill:#00a200;fill-opacity:1;stroke:#007100;stroke-width:2.55801034px;stroke-linecap:butt;stroke-linejoin:miter;stroke-opacity:1"
       d="m 26.933994,44.654142 c 0,0 -2.032619,11.613079 -5.194472,12.451135 -3.161855,0.838058 8.808015,1.197224 8.808015,1.197224 l 5.646166,-8.620015 c 0,0 1.806775,-1.915559 2.710163,-0.239444 0.903383,1.676113 2.710159,8.739738 2.710159,8.739738 l 8.582168,-0.239445 0.677543,-13.528636 z"
       id="path5140"
       inkscape:connector-curvature="0" />
    <path
       style="fill:none;stroke:#000000;stroke-width:5.88342333;stroke-linecap:butt;stroke-linejoin:miter;stroke-miterlimit:4;stroke-opacity:1;stroke-dasharray:none"
       d="m 31.902619,60.577228 c 0,0 -21.003735,-0.718334 -18.519421,-2.873339 2.484314,-2.155003 1.806771,-1.316947 1.806771,-1.316947"
       id="path5144"
       inkscape:connector-curvature="0" />
    <path
       style="fill:none;stroke:#000000;stroke-width:5.88342333;stroke-linecap:butt;stroke-linejoin:miter;stroke-miterlimit:4;stroke-opacity:1;stroke-dasharray:none"
       d="M 53.809743,59.978616 C 40.033098,60.816673 40.033098,60.816673 40.033098,60.816673"
       id="path5146"
       inkscape:connector-curvature="0" />
    <path
       style="fill:#4d4d4d;fill-opacity:0.6719577;stroke:#6f6f6f;stroke-width:4.09281635;stroke-linecap:butt;stroke-linejoin:miter;stroke-miterlimit:4;stroke-opacity:1;stroke-dasharray:none"
       d="M 3.5358424,42.25201 C 41.929726,40.040989 41.954117,40.160006 41.954117,40.160006 c 0,0 6.64258,3.591557 1.151387,4.509916 -5.491186,0.918359 2.460402,-3.51364 -2.75247,-3.454297 -5.212871,0.05934 -15.716794,0.905097 -15.716794,0.905097 l 0.561001,2.73751 -4.139027,-0.24335 -0.111932,-2.76337 -17.5130014,1.008536 z"
       id="path5148"
       inkscape:connector-curvature="0" />
  </g>
</svg>
