<?xml version="1.0" encoding="UTF-8" standalone="no"?>
<!-- Created with Inkscape (http://www.inkscape.org/) -->

<svg
   xmlns:dc="http://purl.org/dc/elements/1.1/"
   xmlns:cc="http://creativecommons.org/ns#"
   xmlns:rdf="http://www.w3.org/1999/02/22-rdf-syntax-ns#"
   xmlns:svg="http://www.w3.org/2000/svg"
   xmlns="http://www.w3.org/2000/svg"
   xmlns:sodipodi="http://sodipodi.sourceforge.net/DTD/sodipodi-0.dtd"
   xmlns:inkscape="http://www.inkscape.org/namespaces/inkscape"
   width="64px"
   height="64px"
   id="svg3070"
   version="1.1"
   inkscape:version="0.48.5 r10040"
   sodipodi:docname="Uus dokument 6">
  <defs
     id="defs3072" />
  <sodipodi:namedview
     id="base"
     pagecolor="#ffffff"
     bordercolor="#666666"
     borderopacity="1.0"
     inkscape:pageopacity="0.0"
     inkscape:pageshadow="2"
     inkscape:zoom="11"
     inkscape:cx="5.550997"
     inkscape:cy="32.869789"
     inkscape:current-layer="layer1"
     showgrid="true"
     inkscape:document-units="px"
     inkscape:grid-bbox="true"
     inkscape:window-width="1920"
     inkscape:window-height="1041"
     inkscape:window-x="0"
     inkscape:window-y="0"
     inkscape:window-maximized="1" />
  <metadata
     id="metadata3075">
    <rdf:RDF>
      <cc:Work
         rdf:about="">
        <dc:format>image/svg+xml</dc:format>
        <dc:type
           rdf:resource="http://purl.org/dc/dcmitype/StillImage" />
        <dc:title></dc:title>
      </cc:Work>
    </rdf:RDF>
  </metadata>
  <g
     id="layer1"
     inkscape:label="Layer 1"
     inkscape:groupmode="layer">
    <path
       style="fill:#803300;stroke:#81561b;stroke-width:1px;stroke-linecap:butt;stroke-linejoin:miter;stroke-opacity:1"
       d="m 26.272727,36.727273 c -1,22.090909 -1.727272,22.272727 -3.181818,23.636363 -1.454545,1.363637 -4.636364,2.454546 -4.636364,2.454546 l 20.454546,-0.09091 c 0,0 -7.090909,-1.636364 -7.727273,-25.909091 -0.636363,-24.272727 -4.909091,-0.09091 -4.909091,-0.09091 z"
       id="path3915"
       inkscape:connector-curvature="0" />
    <path
       sodipodi:type="star"
       style="fill:#005b00;stroke:none;fill-opacity:1"
       id="path3078"
       sodipodi:sides="6"
       sodipodi:cx="12.181818"
       sodipodi:cy="20"
       sodipodi:r1="14.142428"
       sodipodi:r2="12.247702"
       sodipodi:arg1="-0.68980004"
       sodipodi:arg2="-0.16620127"
       inkscape:flatsided="true"
       inkscape:rounded="0"
       inkscape:randomized="0"
       d="m 23.090909,11 2.339684,13.94755 -10.909092,9 L 1.2727266,29 -1.0669566,15.05245 9.8421348,6.0524496 z"
       transform="matrix(0.95196811,0,0,0.80772121,6.0396611,7.436485)" />
    <path
       sodipodi:type="star"
       style="fill:#008000;stroke:none"
       id="path3078-8"
       sodipodi:sides="6"
       sodipodi:cx="12.181818"
       sodipodi:cy="20"
       sodipodi:r1="14.142428"
       sodipodi:r2="12.247702"
       sodipodi:arg1="-0.68980004"
       sodipodi:arg2="-0.16620127"
       inkscape:flatsided="true"
       inkscape:rounded="0"
       inkscape:randomized="0"
       d="m 23.090909,11 2.339684,13.94755 -10.909092,9 L 1.2727266,29 -1.0669566,15.05245 9.8421348,6.0524496 z"
       transform="matrix(0.95196811,0,0,0.80772121,8.9487523,-3.427151)" />
    <path
       sodipodi:type="star"
       style="fill:#007800;stroke:none;fill-opacity:1"
       id="path3078-1"
       sodipodi:sides="6"
       sodipodi:cx="12.181818"
       sodipodi:cy="20"
       sodipodi:r1="14.142428"
       sodipodi:r2="12.247702"
       sodipodi:arg1="-0.68980004"
       sodipodi:arg2="-0.16620127"
       inkscape:flatsided="true"
       inkscape:rounded="0"
       inkscape:randomized="0"
       d="m 23.090909,11 2.339684,13.94755 -10.909092,9 L 1.2727266,29 -1.0669566,15.05245 9.8421348,6.0524496 z"
       transform="matrix(0.95196811,0,0,0.80772121,20.494207,-4.6998788)" />
    <path
       sodipodi:type="star"
       style="fill:#006700;stroke:none;fill-opacity:1"
       id="path3078-88"
       sodipodi:sides="6"
       sodipodi:cx="12.181818"
       sodipodi:cy="20"
       sodipodi:r1="14.142428"
       sodipodi:r2="12.247702"
       sodipodi:arg1="-0.68980004"
       sodipodi:arg2="-0.16620127"
       inkscape:flatsided="true"
       inkscape:rounded="0"
       inkscape:randomized="0"
       d="m 23.090909,11 2.339684,13.94755 -10.909092,9 L 1.2727266,29 -1.0669566,15.05245 9.8421348,6.0524496 z"
       transform="matrix(0.95196811,0,0,0.80772121,16.585115,10.754667)" />
    <path
       sodipodi:type="star"
       style="fill:#009a00;stroke:none;fill-opacity:1"
       id="path3078-3"
       sodipodi:sides="6"
       sodipodi:cx="12.181818"
       sodipodi:cy="20"
       sodipodi:r1="14.142428"
       sodipodi:r2="12.247702"
       sodipodi:arg1="-0.68980004"
       sodipodi:arg2="-0.16620127"
       inkscape:flatsided="true"
       inkscape:rounded="0"
       inkscape:randomized="0"
       d="m 23.090909,11 2.339684,13.94755 -10.909092,9 L 1.2727266,29 -1.0669566,15.05245 9.8421348,6.0524496 z"
       transform="matrix(0.95196811,0,0,0.80772121,12.22148,18.118303)" />
    <path
       sodipodi:type="star"
       style="fill:#008000;stroke:none"
       id="path3078-0"
       sodipodi:sides="6"
       sodipodi:cx="12.181818"
       sodipodi:cy="20"
       sodipodi:r1="14.142428"
       sodipodi:r2="12.247702"
       sodipodi:arg1="-0.68980004"
       sodipodi:arg2="-0.16620127"
       inkscape:flatsided="true"
       inkscape:rounded="0"
       inkscape:randomized="0"
       d="m 23.090909,11 2.339684,13.94755 -10.909092,9 L 1.2727266,29 -1.0669566,15.05245 9.8421348,6.0524496 z"
       transform="matrix(0.95196811,0,0,0.80772121,24.585116,13.300122)" />
    <path
       sodipodi:type="star"
       style="fill:#008000;stroke:none"
       id="path3078-36"
       sodipodi:sides="6"
       sodipodi:cx="12.181818"
       sodipodi:cy="20"
       sodipodi:r1="14.142428"
       sodipodi:r2="12.247702"
       sodipodi:arg1="-0.68980004"
       sodipodi:arg2="-0.16620127"
       inkscape:flatsided="true"
       inkscape:rounded="0"
       inkscape:randomized="0"
       d="m 23.090909,11 2.339684,13.94755 -10.909092,9 L 1.2727266,29 -1.0669566,15.05245 9.8421348,6.0524496 z"
       transform="matrix(0.95196811,0,0,0.80772121,26.13057,2.9364846)" />
    <path
       sodipodi:type="star"
       style="fill:#006500;fill-opacity:1;stroke:none"
       id="path3078-6"
       sodipodi:sides="6"
       sodipodi:cx="12.181818"
       sodipodi:cy="20"
       sodipodi:r1="14.142428"
       sodipodi:r2="12.247702"
       sodipodi:arg1="-0.68980004"
       sodipodi:arg2="-0.16620127"
       inkscape:flatsided="true"
       inkscape:rounded="0"
       inkscape:randomized="0"
       d="m 23.090909,11 2.339684,13.94755 -10.909092,9 L 1.2727266,29 -1.0669566,15.05245 9.8421348,6.0524496 z"
       transform="matrix(0.95196811,0,0,0.80772121,32.22148,8.118303)" />
    <path
       sodipodi:type="star"
       style="fill:#005b00;stroke:none;fill-opacity:1"
       id="path3078-39"
       sodipodi:sides="6"
       sodipodi:cx="12.181818"
       sodipodi:cy="20"
       sodipodi:r1="14.142428"
       sodipodi:r2="12.247702"
       sodipodi:arg1="-0.68980004"
       sodipodi:arg2="-0.16620127"
       inkscape:flatsided="true"
       inkscape:rounded="0"
       inkscape:randomized="0"
       d="m 23.090909,11 2.339684,13.94755 -10.909092,9 L 1.2727266,29 -1.0669566,15.05245 9.8421348,6.0524496 z"
       transform="matrix(0.95196811,0,0,0.80772121,30.948752,1.027394)" />
  </g>
</svg>
